:SAMPLES-PER-SECOND 30
:FULLY-SPECIFIED
:DEGREES
265
root  -0.691789 40.7941 -5.41249 34.4457 81.6059 32.0515
RightUpLeg  -0.429631 -10.9011 -7.59649
RightLeg  9.34738 -10.2321 3.29962
RightFoot  -10.1455 -0.0523452 -1.56562
RightToes  0.000482159 0.542163 -0.142577
Spine  5.72698 0.156689 1.98613
Spine1  6.89362 1.21182 -3.31909
HEad  2.1981 -1.20254 -3.22808
LeftShoulder1  9.02129 -13.7008 -45.7214
LeftArm  -7.88205 10.1938 -27.4056
LeftForeArm  25.2589 -26.5226 -4.34628
LeftHand  -0.25398 0.0180481 5.50724
RightShoulder  6.11184 10.699 37.022
RightArm  5.32018 -2.11961 37.5722
RightForeArm  1.20245 27.3946 5.84422
RightHand  -0.680418 0.896381 -12.6651
LeftUpLeg  -7.48973 9.61087 -3.86649
LeftLeg  10.7703 13.3701 0.114869
LeftFoot  -7.81346 0.0933194 -1.51197
LeftToes  1.06245e-005 4.65856e-005 -8.18503e-006
266
root  -0.609437 40.8012 -5.39424 31.0732 81.2431 28.9334
RightUpLeg  0.0677084 -10.6531 -7.37789
RightLeg  8.97146 -9.9314 3.3262
RightFoot  -9.77648 -0.0412109 -1.8313
RightToes  0.000482159 0.542163 -0.142577
Spine  4.65543 0.440507 2.44754
Spine1  7.16719 1.5417 -3.3196
HEad  3.83535 -1.1158 -2.97291
LeftShoulder1  8.95741 -13.6157 -45.6197
LeftArm  -9.75863 11.2486 -27.9447
LeftForeArm  25.5401 -29.2808 -4.9491
LeftHand  -0.25398 0.0180481 5.50724
RightShoulder  6.08626 10.6799 36.9032
RightArm  5.73189 -3.06167 37.8811
RightForeArm  0.80326 26.461 5.64749
RightHand  -0.700813 1.01804 -12.8073
LeftUpLeg  -5.79362 9.7867 -3.72559
LeftLeg  10.0897 14.5525 -0.269773
LeftFoot  -6.80507 0.0717104 -0.80575
LeftToes  1.06245e-005 4.65856e-005 -8.18503e-006
267
root  -0.448895 40.7847 -5.39251 24.8363 81.1115 22.9727
RightUpLeg  0.985732 -10.24 -6.68421
RightLeg  8.14041 -9.77558 3.54223
RightFoot  -9.412 -0.0286364 -2.07611
RightToes  0.000482159 0.542163 -0.142577
Spine  3.45525 0.570559 3.28326
Spine1  7.46565 1.687 -3.34995
HEad  5.32976 -0.579207 -2.8553
LeftShoulder1  8.91792 -13.5337 -45.6376
LeftArm  -10.9789 13.0233 -28.1043
LeftForeArm  25.4381 -32.1651 -5.63844
LeftHand  -0.25398 0.0180481 5.50724
RightShoulder  6.044 10.6041 36.8364
RightArm  7.02709 -4.03887 37.9678
RightForeArm  -0.300328 25.2501 5.42307
RightHand  -0.657499 0.698155 -12.6183
LeftUpLeg  -3.50672 7.3444 -2.66183
LeftLeg  7.83137 17.4729 -1.61387
LeftFoot  -5.51514 0.00139853 0.623479
LeftToes  1.06245e-005 4.65856e-005 -8.18503e-006
268
root  -0.266435 40.7955 -5.37876 18.9282 81.0094 17.5004
RightUpLeg  2.25008 -9.6804 -5.93281
RightLeg  7.00074 -9.98274 3.70794
RightFoot  -8.88172 -0.00562302 -2.52809
RightToes  0.000482159 0.542163 -0.142577
Spine  2.55082 0.637702 3.42683
Spine1  7.81414 1.58541 -2.83682
HEad  6.39607 0.210267 -2.84671
LeftShoulder1  8.81972 -13.2647 -45.8668
LeftArm  -11.5845 14.5393 -28.0565
LeftForeArm  25.715 -34.4529 -6.19636
LeftHand  -0.25398 0.0180481 5.50724
RightShoulder  6.04364 10.4742 37.2205
RightArm  9.04914 -4.68758 37.2989
RightForeArm  -1.37822 23.8799 5.1869
RightHand  -0.615518 0.471679 -12.2567
LeftUpLeg  -1.19396 4.56052 -1.58406
LeftLeg  4.91111 20.3049 -3.22107
LeftFoot  -4.7256 -0.0994432 2.22008
LeftToes  1.06245e-005 4.65856e-005 -8.18503e-006
269
root  -0.0947647 40.851 -5.33728 17.7612 81.0102 16.7027
RightUpLeg  3.25636 -9.34233 -5.72375
RightLeg  6.18325 -10.3361 3.65223
RightFoot  -8.26923 0.0224057 -2.9253
RightToes  0.000482159 0.542163 -0.142577
Spine  1.71254 0.637461 2.26627
Spine1  8.26484 1.25198 -1.68151
HEad  7.16754 0.831014 -2.69029
LeftShoulder1  8.6901 -12.8959 -46.218
LeftArm  -11.626 15.4119 -27.9236
LeftForeArm  25.8262 -35.2737 -6.40507
LeftHand  -0.25398 0.0180481 5.50724
RightShoulder  6.1149 10.3227 38.1753
RightArm  10.076 -5.07104 36.0441
RightForeArm  -0.826667 21.8896 5.12501
RightHand  -0.640082 0.818479 -12.0673
LeftUpLeg  0.729469 3.46366 -1.26982
LeftLeg  2.04731 21.2783 -4.52187
LeftFoot  -3.96255 -0.165055 2.9384
LeftToes  1.06245e-005 4.65856e-005 -8.18503e-006
